<svg width="15" height="14" viewBox="0 0 15 14" fill="none" xmlns="http://www.w3.org/2000/svg">
<path d="M1.37952 8.0625C1.69202 8.375 2.16077 8.34375 2.47327 8.0625L6.03577 4.28125L6.03577 13.25C6.03577 13.6875 6.37952 14 6.78577 14L7.78577 14C8.22327 14 8.53577 13.6875 8.53577 13.25L8.53577 4.28125L12.1295 8.0625C12.442 8.34375 12.9108 8.34375 13.2233 8.0625L13.9108 7.375C14.192 7.0625 14.192 6.59375 13.9108 6.3125L7.81702 0.21875C7.53577 -0.0625004 7.06702 -0.0625004 6.75452 0.21875L0.692016 6.3125C0.410766 6.59375 0.410766 7.0625 0.692016 7.375L1.37952 8.0625Z" fill="white"/>
</svg>
