<svg width="13" height="13" viewBox="0 0 13 13" fill="none" xmlns="http://www.w3.org/2000/svg">
<path d="M7.50427 11.4046C7.77392 11.1274 7.74093 10.7177 7.49109 10.4477L4.13988 7.37633L11.9868 7.26825C12.3696 7.26298 12.6388 6.95846 12.6339 6.60303L12.6219 5.72811C12.6166 5.34533 12.3394 5.07569 11.9567 5.08096L4.10975 5.18904L7.37473 1.99924C7.61703 1.72244 7.61138 1.31232 7.36155 1.0423L6.75176 0.44908C6.47495 0.206775 6.06484 0.212424 5.82216 0.461884L0.564066 5.86684C0.321385 6.1163 0.327034 6.52642 0.57687 6.79644L5.98145 12.0272C6.23091 12.2699 6.64103 12.2642 6.91105 12.0144L7.50427 11.4046Z" fill="#1565D8"/>
</svg>
