<svg width="14" height="14" viewBox="0 0 14 14" fill="none" xmlns="http://www.w3.org/2000/svg">
<path d="M1.09375 8.0625C1.40625 8.375 1.875 8.34375 2.1875 8.0625L5.75 4.28125L5.75 13.25C5.75 13.6875 6.09375 14 6.5 14L7.5 14C7.9375 14 8.25 13.6875 8.25 13.25L8.25 4.28125L11.8437 8.0625C12.1562 8.34375 12.625 8.34375 12.9375 8.0625L13.625 7.375C13.9062 7.0625 13.9062 6.59375 13.625 6.3125L7.53125 0.21875C7.25 -0.0625004 6.78125 -0.0625004 6.46875 0.21875L0.40625 6.3125C0.125 6.59375 0.125 7.0625 0.40625 7.375L1.09375 8.0625Z" fill="#1565D8"/>
</svg>
